<svg width="214" height="86" viewBox="0 0 214 86" fill="none" xmlns="http://www.w3.org/2000/svg">
<path d="M27.693 44.982H22.287L35.904 12.75H49.674L32.334 51H17.34L-1.234e-07 12.75H14.076L27.693 44.982ZM54.9238 44.574V34.119H80.9848V44.574H54.9238ZM76.9558 12.75L93.7348 51H79.7098L66.5008 18.564H69.8668L56.6578 51H42.6328L59.4118 12.75H76.9558ZM106.854 33.456C106.854 34.85 107.092 36.057 107.568 37.077C108.078 38.063 108.843 38.828 109.863 39.372C110.883 39.916 112.192 40.188 113.79 40.188C115.422 40.188 116.748 39.933 117.768 39.423C118.788 38.879 119.536 38.097 120.012 37.077C120.488 36.057 120.726 34.85 120.726 33.456V12.75H133.884V34.17C133.884 37.74 133.051 40.851 131.385 43.503C129.719 46.155 127.373 48.229 124.347 49.725C121.355 51.187 117.836 51.918 113.79 51.918C109.778 51.918 106.259 51.187 103.233 49.725C100.241 48.229 97.8952 46.155 96.1952 43.503C94.5292 40.851 93.6962 37.74 93.6962 34.17V12.75H106.854V33.456ZM152.686 12.75V45.186L146.77 39.27H175.228V51H139.528V12.75H152.686ZM184.529 18.411H197.687V51H184.529V18.411ZM170.759 12.75H211.457V24.48H170.759V12.75Z" fill="white"/>
<path d="M139.25 60.9525V69.4194C140.009 68.3572 141.078 67.8261 142.459 67.8261C143.901 67.8261 145.069 68.3193 145.964 69.3056C146.859 70.2918 147.307 71.5437 147.307 73.061C147.307 74.5784 146.844 75.8378 145.919 76.8392C145.008 77.8255 143.832 78.3186 142.391 78.3186C141.071 78.3186 140.024 77.7876 139.25 76.7254V78H136.473V60.9525H139.25ZM143.665 71.0809C143.149 70.5498 142.497 70.2842 141.708 70.2842C140.919 70.2842 140.266 70.5498 139.751 71.0809C139.235 71.6119 138.977 72.272 138.977 73.061C138.977 73.85 139.235 74.5177 139.751 75.0639C140.266 75.595 140.919 75.8605 141.708 75.8605C142.497 75.8605 143.149 75.595 143.665 75.0639C144.181 74.5177 144.439 73.85 144.439 73.061C144.439 72.272 144.181 71.6119 143.665 71.0809ZM149.249 83.2804L152.868 76.5206L148.179 68.1448H151.411L154.461 73.7438L157.192 68.1448H160.333L152.39 83.2804H149.249ZM174.524 69.4194V68.1448H177.301V77.6358C177.301 78.2124 177.285 78.6525 177.255 78.9559C177.24 79.2594 177.141 79.6691 176.959 80.185C176.792 80.7009 176.534 81.1637 176.185 81.5734C175.169 82.7266 173.795 83.3032 172.066 83.3032C170.654 83.3032 169.456 82.9314 168.469 82.1879C167.498 81.4444 166.929 80.4354 166.762 79.1608H169.767C169.873 79.7222 170.131 80.1546 170.541 80.4581C170.95 80.7768 171.466 80.9361 172.088 80.9361C172.544 80.9361 172.931 80.8526 173.249 80.6857C173.583 80.5188 173.826 80.3291 173.977 80.1167C174.144 79.9195 174.266 79.6691 174.342 79.3656C174.433 79.0621 174.486 78.827 174.501 78.66C174.516 78.5083 174.524 78.3414 174.524 78.1593V76.6799C173.811 77.7724 172.802 78.3186 171.497 78.3186C170.025 78.3186 168.826 77.8103 167.9 76.7937C166.975 75.7771 166.512 74.5328 166.512 73.061C166.512 71.6195 166.96 70.3905 167.855 69.3738C168.75 68.342 169.941 67.8261 171.428 67.8261C172.794 67.8261 173.826 68.3572 174.524 69.4194ZM174.069 71.0809C173.553 70.5498 172.9 70.2842 172.111 70.2842C171.322 70.2842 170.67 70.5498 170.154 71.0809C169.638 71.6119 169.38 72.272 169.38 73.061C169.38 73.85 169.638 74.5177 170.154 75.0639C170.67 75.595 171.322 75.8605 172.111 75.8605C172.9 75.8605 173.553 75.595 174.069 75.0639C174.584 74.5177 174.842 73.85 174.842 73.061C174.842 72.272 174.584 71.6119 174.069 71.0809ZM179.949 78V68.1448H182.726V69.6242C183.059 68.9869 183.469 68.5317 183.955 68.2586C184.41 67.9703 184.956 67.8261 185.593 67.8261C185.958 67.8261 186.352 67.902 186.777 68.0537L186.413 70.6484C186.064 70.4056 185.631 70.2842 185.115 70.2842C184.311 70.2842 183.697 70.5498 183.272 71.0809C182.908 71.5361 182.726 72.2644 182.726 73.2659V78H179.949ZM188.151 78V68.1448H190.927V69.26C191.686 68.3041 192.665 67.8261 193.863 67.8261C195.335 67.8261 196.375 68.4255 196.982 69.6242C197.725 68.4255 198.78 67.8261 200.145 67.8261C201.298 67.8261 202.186 68.2282 202.808 69.0324C203.097 69.4118 203.279 69.8063 203.355 70.216C203.446 70.6257 203.491 71.1567 203.491 71.8092V78H200.714V72.6286C200.714 71.703 200.563 71.0581 200.259 70.6939C199.986 70.3601 199.607 70.1932 199.121 70.1932C198.423 70.1932 197.915 70.4815 197.596 71.0581C197.338 71.483 197.209 72.1202 197.209 72.97V78H194.432V72.6286C194.432 71.703 194.281 71.0581 193.977 70.6939C193.704 70.3601 193.325 70.1932 192.839 70.1932C192.141 70.1932 191.633 70.4815 191.314 71.0581C191.056 71.483 190.927 72.1202 190.927 72.97V78H188.151ZM206.132 78V68.1448H208.909V69.6242C209.243 68.9869 209.652 68.5317 210.138 68.2586C210.593 67.9703 211.139 67.8261 211.777 67.8261C212.141 67.8261 212.535 67.902 212.96 68.0537L212.596 70.6484C212.247 70.4056 211.815 70.2842 211.299 70.2842C210.495 70.2842 209.88 70.5498 209.455 71.0809C209.091 71.5361 208.909 72.2644 208.909 73.2659V78H206.132Z" fill="white"/>
</svg>
